<svg xmlns="http://www.w3.org/2000/svg" xmlns:xlink="http://www.w3.org/1999/xlink" version="1.1" class="marks" width="982" height="377" viewBox="0 0 982 377"><rect width="982" height="377" fill="white"/><g fill="none" stroke-miterlimit="10" transform="translate(44,27)"><g class="mark-group role-frame root" role="graphics-object" aria-roledescription="group mark container"><g transform="translate(0,0)"><path class="background" aria-hidden="true" d="M0.5,0.5h820v300h-820Z" stroke="#ddd"/><g><g class="mark-group role-axis" aria-hidden="true"><g transform="translate(0.5,0.5)"><path class="background" aria-hidden="true" d="M0,0h0v0h0Z" pointer-events="none"/><g><g class="mark-rule role-axis-grid" pointer-events="none"><line transform="translate(0,300)" x2="820" y2="0" stroke="#ddd" stroke-width="1" opacity="1"/><line transform="translate(0,267)" x2="820" y2="0" stroke="#ddd" stroke-width="1" opacity="1"/><line transform="translate(0,233)" x2="820" y2="0" stroke="#ddd" stroke-width="1" opacity="1"/><line transform="translate(0,200)" x2="820" y2="0" stroke="#ddd" stroke-width="1" opacity="1"/><line transform="translate(0,167)" x2="820" y2="0" stroke="#ddd" stroke-width="1" opacity="1"/><line transform="translate(0,133)" x2="820" y2="0" stroke="#ddd" stroke-width="1" opacity="1"/><line transform="translate(0,100)" x2="820" y2="0" stroke="#ddd" stroke-width="1" opacity="1"/><line transform="translate(0,67)" x2="820" y2="0" stroke="#ddd" stroke-width="1" opacity="1"/><line transform="translate(0,33)" x2="820" y2="0" stroke="#ddd" stroke-width="1" opacity="1"/><line transform="translate(0,0)" x2="820" y2="0" stroke="#ddd" stroke-width="1" opacity="1"/></g></g><path class="foreground" aria-hidden="true" d="" pointer-events="none" display="none"/></g></g><g class="mark-group role-axis" role="graphics-symbol" aria-roledescription="axis" aria-label="X-axis titled 'release_year' for a discrete scale with 41 values: 1980, 1981, 1982, 1983, 1984, ending with 2020"><g transform="translate(0.5,300.5)"><path class="background" aria-hidden="true" d="M0,0h0v0h0Z" pointer-events="none"/><g><g class="mark-rule role-axis-tick" pointer-events="none"><line transform="translate(10,0)" x2="0" y2="5" stroke="#888" stroke-width="1" opacity="1"/><line transform="translate(30,0)" x2="0" y2="5" stroke="#888" stroke-width="1" opacity="1"/><line transform="translate(50,0)" x2="0" y2="5" stroke="#888" stroke-width="1" opacity="1"/><line transform="translate(70,0)" x2="0" y2="5" stroke="#888" stroke-width="1" opacity="1"/><line transform="translate(90,0)" x2="0" y2="5" stroke="#888" stroke-width="1" opacity="1"/><line transform="translate(110,0)" x2="0" y2="5" stroke="#888" stroke-width="1" opacity="1"/><line transform="translate(130,0)" x2="0" y2="5" stroke="#888" stroke-width="1" opacity="1"/><line transform="translate(150,0)" x2="0" y2="5" stroke="#888" stroke-width="1" opacity="1"/><line transform="translate(170,0)" x2="0" y2="5" stroke="#888" stroke-width="1" opacity="1"/><line transform="translate(190,0)" x2="0" y2="5" stroke="#888" stroke-width="1" opacity="1"/><line transform="translate(210,0)" x2="0" y2="5" stroke="#888" stroke-width="1" opacity="1"/><line transform="translate(230,0)" x2="0" y2="5" stroke="#888" stroke-width="1" opacity="1"/><line transform="translate(250,0)" x2="0" y2="5" stroke="#888" stroke-width="1" opacity="1"/><line transform="translate(270,0)" x2="0" y2="5" stroke="#888" stroke-width="1" opacity="1"/><line transform="translate(290,0)" x2="0" y2="5" stroke="#888" stroke-width="1" opacity="1"/><line transform="translate(310,0)" x2="0" y2="5" stroke="#888" stroke-width="1" opacity="1"/><line transform="translate(330,0)" x2="0" y2="5" stroke="#888" stroke-width="1" opacity="1"/><line transform="translate(350,0)" x2="0" y2="5" stroke="#888" stroke-width="1" opacity="1"/><line transform="translate(370,0)" x2="0" y2="5" stroke="#888" stroke-width="1" opacity="1"/><line transform="translate(390,0)" x2="0" y2="5" stroke="#888" stroke-width="1" opacity="1"/><line transform="translate(410,0)" x2="0" y2="5" stroke="#888" stroke-width="1" opacity="1"/><line transform="translate(430,0)" x2="0" y2="5" stroke="#888" stroke-width="1" opacity="1"/><line transform="translate(450,0)" x2="0" y2="5" stroke="#888" stroke-width="1" opacity="1"/><line transform="translate(470,0)" x2="0" y2="5" stroke="#888" stroke-width="1" opacity="1"/><line transform="translate(490,0)" x2="0" y2="5" stroke="#888" stroke-width="1" opacity="1"/><line transform="translate(510,0)" x2="0" y2="5" stroke="#888" stroke-width="1" opacity="1"/><line transform="translate(530,0)" x2="0" y2="5" stroke="#888" stroke-width="1" opacity="1"/><line transform="translate(550,0)" x2="0" y2="5" stroke="#888" stroke-width="1" opacity="1"/><line transform="translate(570,0)" x2="0" y2="5" stroke="#888" stroke-width="1" opacity="1"/><line transform="translate(590,0)" x2="0" y2="5" stroke="#888" stroke-width="1" opacity="1"/><line transform="translate(610,0)" x2="0" y2="5" stroke="#888" stroke-width="1" opacity="1"/><line transform="translate(630,0)" x2="0" y2="5" stroke="#888" stroke-width="1" opacity="1"/><line transform="translate(650,0)" x2="0" y2="5" stroke="#888" stroke-width="1" opacity="1"/><line transform="translate(670,0)" x2="0" y2="5" stroke="#888" stroke-width="1" opacity="1"/><line transform="translate(690,0)" x2="0" y2="5" stroke="#888" stroke-width="1" opacity="1"/><line transform="translate(710,0)" x2="0" y2="5" stroke="#888" stroke-width="1" opacity="1"/><line transform="translate(730,0)" x2="0" y2="5" stroke="#888" stroke-width="1" opacity="1"/><line transform="translate(750,0)" x2="0" y2="5" stroke="#888" stroke-width="1" opacity="1"/><line transform="translate(770,0)" x2="0" y2="5" stroke="#888" stroke-width="1" opacity="1"/><line transform="translate(790,0)" x2="0" y2="5" stroke="#888" stroke-width="1" opacity="1"/><line transform="translate(810,0)" x2="0" y2="5" stroke="#888" stroke-width="1" opacity="1"/></g><g class="mark-text role-axis-label" pointer-events="none"><text text-anchor="end" transform="translate(10,7) rotate(270) translate(0,3)" font-family="sans-serif" font-size="10px" fill="#000" opacity="1">1980</text><text text-anchor="end" transform="translate(30,7) rotate(270) translate(0,3)" font-family="sans-serif" font-size="10px" fill="#000" opacity="1">1981</text><text text-anchor="end" transform="translate(50,7) rotate(270) translate(0,3)" font-family="sans-serif" font-size="10px" fill="#000" opacity="1">1982</text><text text-anchor="end" transform="translate(70,7) rotate(270) translate(0,3)" font-family="sans-serif" font-size="10px" fill="#000" opacity="1">1983</text><text text-anchor="end" transform="translate(90,7) rotate(270) translate(0,3)" font-family="sans-serif" font-size="10px" fill="#000" opacity="1">1984</text><text text-anchor="end" transform="translate(110,7) rotate(270) translate(0,3)" font-family="sans-serif" font-size="10px" fill="#000" opacity="1">1985</text><text text-anchor="end" transform="translate(130,7) rotate(270) translate(0,3)" font-family="sans-serif" font-size="10px" fill="#000" opacity="1">1986</text><text text-anchor="end" transform="translate(150,7) rotate(270) translate(0,3)" font-family="sans-serif" font-size="10px" fill="#000" opacity="1">1987</text><text text-anchor="end" transform="translate(170,7) rotate(270) translate(0,3)" font-family="sans-serif" font-size="10px" fill="#000" opacity="1">1988</text><text text-anchor="end" transform="translate(190,7) rotate(270) translate(0,3)" font-family="sans-serif" font-size="10px" fill="#000" opacity="1">1989</text><text text-anchor="end" transform="translate(210,7) rotate(270) translate(0,3)" font-family="sans-serif" font-size="10px" fill="#000" opacity="1">1990</text><text text-anchor="end" transform="translate(230,7) rotate(270) translate(0,3)" font-family="sans-serif" font-size="10px" fill="#000" opacity="1">1991</text><text text-anchor="end" transform="translate(250,7) rotate(270) translate(0,3)" font-family="sans-serif" font-size="10px" fill="#000" opacity="1">1992</text><text text-anchor="end" transform="translate(270,7) rotate(270) translate(0,3)" font-family="sans-serif" font-size="10px" fill="#000" opacity="1">1993</text><text text-anchor="end" transform="translate(290,7) rotate(270) translate(0,3)" font-family="sans-serif" font-size="10px" fill="#000" opacity="1">1994</text><text text-anchor="end" transform="translate(310,7) rotate(270) translate(0,3)" font-family="sans-serif" font-size="10px" fill="#000" opacity="1">1995</text><text text-anchor="end" transform="translate(330,7) rotate(270) translate(0,3)" font-family="sans-serif" font-size="10px" fill="#000" opacity="1">1996</text><text text-anchor="end" transform="translate(350,7) rotate(270) translate(0,3)" font-family="sans-serif" font-size="10px" fill="#000" opacity="1">1997</text><text text-anchor="end" transform="translate(370,7) rotate(270) translate(0,3)" font-family="sans-serif" font-size="10px" fill="#000" opacity="1">1998</text><text text-anchor="end" transform="translate(390,7) rotate(270) translate(0,3)" font-family="sans-serif" font-size="10px" fill="#000" opacity="1">1999</text><text text-anchor="end" transform="translate(410,7) rotate(270) translate(0,3)" font-family="sans-serif" font-size="10px" fill="#000" opacity="1">2000</text><text text-anchor="end" transform="translate(430,7) rotate(270) translate(0,3)" font-family="sans-serif" font-size="10px" fill="#000" opacity="1">2001</text><text text-anchor="end" transform="translate(450,7) rotate(270) translate(0,3)" font-family="sans-serif" font-size="10px" fill="#000" opacity="1">2002</text><text text-anchor="end" transform="translate(470,7) rotate(270) translate(0,3)" font-family="sans-serif" font-size="10px" fill="#000" opacity="1">2003</text><text text-anchor="end" transform="translate(490,7) rotate(270) translate(0,3)" font-family="sans-serif" font-size="10px" fill="#000" opacity="1">2004</text><text text-anchor="end" transform="translate(510,7) rotate(270) translate(0,3)" font-family="sans-serif" font-size="10px" fill="#000" opacity="1">2005</text><text text-anchor="end" transform="translate(530,7) rotate(270) translate(0,3)" font-family="sans-serif" font-size="10px" fill="#000" opacity="1">2006</text><text text-anchor="end" transform="translate(550,7) rotate(270) translate(0,3)" font-family="sans-serif" font-size="10px" fill="#000" opacity="1">2007</text><text text-anchor="end" transform="translate(570,7) rotate(270) translate(0,3)" font-family="sans-serif" font-size="10px" fill="#000" opacity="1">2008</text><text text-anchor="end" transform="translate(590,7) rotate(270) translate(0,3)" font-family="sans-serif" font-size="10px" fill="#000" opacity="1">2009</text><text text-anchor="end" transform="translate(610,7) rotate(270) translate(0,3)" font-family="sans-serif" font-size="10px" fill="#000" opacity="1">2010</text><text text-anchor="end" transform="translate(630,7) rotate(270) translate(0,3)" font-family="sans-serif" font-size="10px" fill="#000" opacity="1">2011</text><text text-anchor="end" transform="translate(650,7) rotate(270) translate(0,3)" font-family="sans-serif" font-size="10px" fill="#000" opacity="1">2012</text><text text-anchor="end" transform="translate(670,7) rotate(270) translate(0,3)" font-family="sans-serif" font-size="10px" fill="#000" opacity="1">2013</text><text text-anchor="end" transform="translate(690,7) rotate(270) translate(0,3)" font-family="sans-serif" font-size="10px" fill="#000" opacity="1">2014</text><text text-anchor="end" transform="translate(710,7) rotate(270) translate(0,3)" font-family="sans-serif" font-size="10px" fill="#000" opacity="1">2015</text><text text-anchor="end" transform="translate(730,7) rotate(270) translate(0,3)" font-family="sans-serif" font-size="10px" fill="#000" opacity="1">2016</text><text text-anchor="end" transform="translate(750,7) rotate(270) translate(0,3)" font-family="sans-serif" font-size="10px" fill="#000" opacity="1">2017</text><text text-anchor="end" transform="translate(770,7) rotate(270) translate(0,3)" font-family="sans-serif" font-size="10px" fill="#000" opacity="1">2018</text><text text-anchor="end" transform="translate(790,7) rotate(270) translate(0,3)" font-family="sans-serif" font-size="10px" fill="#000" opacity="1">2019</text><text text-anchor="end" transform="translate(810,7) rotate(270) translate(0,3)" font-family="sans-serif" font-size="10px" fill="#000" opacity="1">2020</text></g><g class="mark-rule role-axis-domain" pointer-events="none"><line transform="translate(0,0)" x2="820" y2="0" stroke="#888" stroke-width="1" opacity="1"/></g><g class="mark-text role-axis-title" pointer-events="none"><text text-anchor="middle" transform="translate(410,42.24609375)" font-family="sans-serif" font-size="11px" font-weight="bold" fill="#000" opacity="1">release_year</text></g></g><path class="foreground" aria-hidden="true" d="" pointer-events="none" display="none"/></g></g><g class="mark-group role-axis" role="graphics-symbol" aria-roledescription="axis" aria-label="Y-axis titled 'Count of Records' for a linear scale with values from 0 to 450"><g transform="translate(0.5,0.5)"><path class="background" aria-hidden="true" d="M0,0h0v0h0Z" pointer-events="none"/><g><g class="mark-rule role-axis-tick" pointer-events="none"><line transform="translate(0,300)" x2="-5" y2="0" stroke="#888" stroke-width="1" opacity="1"/><line transform="translate(0,267)" x2="-5" y2="0" stroke="#888" stroke-width="1" opacity="1"/><line transform="translate(0,233)" x2="-5" y2="0" stroke="#888" stroke-width="1" opacity="1"/><line transform="translate(0,200)" x2="-5" y2="0" stroke="#888" stroke-width="1" opacity="1"/><line transform="translate(0,167)" x2="-5" y2="0" stroke="#888" stroke-width="1" opacity="1"/><line transform="translate(0,133)" x2="-5" y2="0" stroke="#888" stroke-width="1" opacity="1"/><line transform="translate(0,100)" x2="-5" y2="0" stroke="#888" stroke-width="1" opacity="1"/><line transform="translate(0,67)" x2="-5" y2="0" stroke="#888" stroke-width="1" opacity="1"/><line transform="translate(0,33)" x2="-5" y2="0" stroke="#888" stroke-width="1" opacity="1"/><line transform="translate(0,0)" x2="-5" y2="0" stroke="#888" stroke-width="1" opacity="1"/></g><g class="mark-text role-axis-label" pointer-events="none"><text text-anchor="end" transform="translate(-7,303)" font-family="sans-serif" font-size="10px" fill="#000" opacity="1">0</text><text text-anchor="end" transform="translate(-7,269.66666666666663)" font-family="sans-serif" font-size="10px" fill="#000" opacity="1">50</text><text text-anchor="end" transform="translate(-7,236.33333333333334)" font-family="sans-serif" font-size="10px" fill="#000" opacity="1">100</text><text text-anchor="end" transform="translate(-7,203.00000000000003)" font-family="sans-serif" font-size="10px" fill="#000" opacity="1">150</text><text text-anchor="end" transform="translate(-7,169.66666666666669)" font-family="sans-serif" font-size="10px" fill="#000" opacity="1">200</text><text text-anchor="end" transform="translate(-7,136.33333333333331)" font-family="sans-serif" font-size="10px" fill="#000" opacity="1">250</text><text text-anchor="end" transform="translate(-7,103.00000000000001)" font-family="sans-serif" font-size="10px" fill="#000" opacity="1">300</text><text text-anchor="end" transform="translate(-7,69.66666666666666)" font-family="sans-serif" font-size="10px" fill="#000" opacity="1">350</text><text text-anchor="end" transform="translate(-7,36.33333333333335)" font-family="sans-serif" font-size="10px" fill="#000" opacity="1">400</text><text text-anchor="end" transform="translate(-7,3)" font-family="sans-serif" font-size="10px" fill="#000" opacity="1">450</text></g><g class="mark-rule role-axis-domain" pointer-events="none"><line transform="translate(0,300)" x2="0" y2="-300" stroke="#888" stroke-width="1" opacity="1"/></g><g class="mark-text role-axis-title" pointer-events="none"><text text-anchor="middle" transform="translate(-27.6845703125,150) rotate(-90) translate(0,-2)" font-family="sans-serif" font-size="11px" font-weight="bold" fill="#000" opacity="1">Count of Records</text></g></g><path class="foreground" aria-hidden="true" d="" pointer-events="none" display="none"/></g></g><g class="mark-group role-scope pathgroup" role="graphics-object" aria-roledescription="group mark container"><g transform="translate(0,0)"><path class="background" aria-hidden="true" d="M0,0h820v300h-820Z"/><g><g class="mark-area role-mark marks" role="graphics-object" aria-roledescription="area mark container"><path aria-label="name of countries: United States; release_year: 1980; Count of Records: 3" role="graphics-symbol" aria-roledescription="area mark" d="M10,298L30,298L50,299.3333333333333L70,299.3333333333333L90,298L110,299.3333333333333L130,296.6666666666667L150,296.6666666666667L170,294.6666666666667L190,296.6666666666667L210,296.6666666666667L230,296L250,298L270,295.3333333333333L290,296.6666666666667L310,295.3333333333333L330,293.3333333333333L350,288.6666666666667L370,292.66666666666663L390,294L410,290.6666666666667L430,291.33333333333337L450,292L470,290.6666666666667L490,292.66666666666663L510,289.3333333333333L530,284L550,285.3333333333333L570,282L590,280.6666666666667L610,285.3333333333333L630,283.3333333333333L650,276L670,269.3333333333333L690,265.33333333333337L710,236.66666666666666L730,196.66666666666666L750,157.33333333333334L770,180L790,206.66666666666666L810,298.6666666666667L810,300L790,300L770,300L750,300L730,300L710,300L690,300L670,300L650,300L630,300L610,300L590,300L570,300L550,300L530,300L510,300L490,300L470,300L450,300L430,300L410,300L390,300L370,300L350,300L330,300L310,300L290,300L270,300L250,300L230,300L210,300L190,300L170,300L150,300L130,300L110,300L90,300L70,300L50,300L30,300L10,300Z" fill="#ff9da6"/></g></g><path class="foreground" aria-hidden="true" d="" display="none"/></g><g transform="translate(0,0)"><path class="background" aria-hidden="true" d="M0,0h820v300h-820Z"/><g><g class="mark-area role-mark marks" role="graphics-object" aria-roledescription="area mark container"><path aria-label="name of countries: India; release_year: 1980; Count of Records: 1" role="graphics-symbol" aria-roledescription="area mark" d="M10,297.33333333333337L30,297.33333333333337L50,296L70,296.6666666666667L90,298L110,298L130,295.3333333333333L150,296.6666666666667L170,293.3333333333333L190,294.6666666666667L210,295.3333333333333L230,295.3333333333333L250,296.6666666666667L270,293.3333333333333L290,292.66666666666663L310,292.66666666666663L330,290.6666666666667L350,286L370,289.3333333333333L390,291.33333333333337L410,285.3333333333333L430,284.6666666666667L450,284.6666666666667L470,283.3333333333333L490,280L510,276L530,271.3333333333333L550,276L570,259.3333333333333L590,262L610,262L630,260.66666666666663L650,248.66666666666666L670,228.66666666666669L690,223.99999999999997L710,175.33333333333334L730,109.33333333333334L750,49.333333333333314L770,78.66666666666667L790,155.33333333333334L810,297.33333333333337L810,298L790,187.33333333333334L770,129.33333333333334L750,113.33333333333333L730,151.33333333333334L710,208.66666666666666L690,248.66666666666666L670,256.6666666666667L650,270L630,278L610,281.33333333333337L590,278L570,275.3333333333333L550,284.6666666666667L530,282.66666666666663L510,286.6666666666667L490,288.6666666666667L470,289.3333333333333L450,290L430,289.3333333333333L410,290L390,293.3333333333333L370,290.6666666666667L350,288L330,292.66666666666663L310,295.3333333333333L290,295.3333333333333L270,294.6666666666667L250,297.33333333333337L230,295.3333333333333L210,296.6666666666667L190,296L170,294.6666666666667L150,296.6666666666667L130,296.6666666666667L110,299.3333333333333L90,298L70,299.3333333333333L50,299.3333333333333L30,298L10,298Z" fill="#eeca3b"/></g></g><path class="foreground" aria-hidden="true" d="" display="none"/></g><g transform="translate(0,0)"><path class="background" aria-hidden="true" d="M0,0h820v300h-820Z"/><g><g class="mark-area role-mark marks" role="graphics-object" aria-roledescription="area mark container"><path aria-label="name of countries: United Kingdom; release_year: 1980; Count of Records: 0" role="graphics-symbol" aria-roledescription="area mark" d="M10,298L30,298L50,299.3333333333333L70,299.3333333333333L90,298L110,299.3333333333333L130,296.6666666666667L150,296.6666666666667L170,294.6666666666667L190,296L210,296.6666666666667L230,295.3333333333333L250,297.33333333333337L270,294.6666666666667L290,295.3333333333333L310,295.3333333333333L330,292.66666666666663L350,288.6666666666667L370,291.33333333333337L390,293.3333333333333L410,290L430,290.6666666666667L450,291.33333333333337L470,290.6666666666667L490,292L510,289.3333333333333L530,284L550,285.3333333333333L570,280L590,280.6666666666667L610,284.6666666666667L630,282.66666666666663L650,274.6666666666667L670,266.66666666666663L690,256.6666666666667L710,226.66666666666666L730,180.66666666666666L750,139.33333333333334L770,164L790,202L810,298.6666666666667L810,298.6666666666667L790,206.66666666666666L770,180L750,157.33333333333334L730,196.66666666666666L710,236.66666666666666L690,265.33333333333337L670,269.3333333333333L650,276L630,283.3333333333333L610,285.3333333333333L590,280.6666666666667L570,282L550,285.3333333333333L530,284L510,289.3333333333333L490,292.66666666666663L470,290.6666666666667L450,292L430,291.33333333333337L410,290.6666666666667L390,294L370,292.66666666666663L350,288.6666666666667L330,293.3333333333333L310,295.3333333333333L290,296.6666666666667L270,295.3333333333333L250,298L230,296L210,296.6666666666667L190,296.6666666666667L170,294.6666666666667L150,296.6666666666667L130,296.6666666666667L110,299.3333333333333L90,298L70,299.3333333333333L50,299.3333333333333L30,298L10,298Z" fill="#b279a2"/></g></g><path class="foreground" aria-hidden="true" d="" display="none"/></g><g transform="translate(0,0)"><path class="background" aria-hidden="true" d="M0,0h820v300h-820Z"/><g><g class="mark-area role-mark marks" role="graphics-object" aria-roledescription="area mark container"><path aria-label="name of countries: Canada; release_year: 1980; Count of Records: 0" role="graphics-symbol" aria-roledescription="area mark" d="M10,297.33333333333337L30,297.33333333333337L50,296L70,296.6666666666667L90,298L110,298L130,295.3333333333333L150,296.6666666666667L170,293.3333333333333L190,294.6666666666667L210,295.3333333333333L230,295.3333333333333L250,296.6666666666667L270,293.3333333333333L290,292.66666666666663L310,292.66666666666663L330,290.6666666666667L350,286L370,288.6666666666667L390,291.33333333333337L410,285.3333333333333L430,284.6666666666667L450,284.6666666666667L470,283.3333333333333L490,279.3333333333333L510,276L530,270L550,276L570,258L590,261.33333333333337L610,259.3333333333333L630,259.3333333333333L650,248L670,228.66666666666669L690,218L710,165.33333333333334L730,89.33333333333334L750,26.66666666666667L770,65.33333333333331L790,143.33333333333331L810,297.33333333333337L810,297.33333333333337L790,146.66666666666669L770,73.33333333333334L750,39.33333333333332L730,99.33333333333334L710,170.66666666666666L690,222.66666666666666L670,228.66666666666669L650,248L630,260.66666666666663L610,260.66666666666663L590,262L570,258.6666666666667L550,276L530,271.3333333333333L510,276L490,280L470,283.3333333333333L450,284.6666666666667L430,284.6666666666667L410,285.3333333333333L390,291.33333333333337L370,289.3333333333333L350,286L330,290.6666666666667L310,292.66666666666663L290,292.66666666666663L270,293.3333333333333L250,296.6666666666667L230,295.3333333333333L210,295.3333333333333L190,294.6666666666667L170,293.3333333333333L150,296.6666666666667L130,295.3333333333333L110,298L90,298L70,296.6666666666667L50,296L30,297.33333333333337L10,297.33333333333337Z" fill="#f58518"/></g></g><path class="foreground" aria-hidden="true" d="" display="none"/></g><g transform="translate(0,0)"><path class="background" aria-hidden="true" d="M0,0h820v300h-820Z"/><g><g class="mark-area role-mark marks" role="graphics-object" aria-roledescription="area mark container"><path aria-label="name of countries: South Korea; release_year: 1980; Count of Records: 0" role="graphics-symbol" aria-roledescription="area mark" d="M10,298L30,298L50,299.3333333333333L70,299.3333333333333L90,298L110,299.3333333333333L130,296.6666666666667L150,296.6666666666667L170,294.6666666666667L190,296L210,296.6666666666667L230,295.3333333333333L250,297.33333333333337L270,294.6666666666667L290,295.3333333333333L310,295.3333333333333L330,292.66666666666663L350,288.6666666666667L370,291.33333333333337L390,293.3333333333333L410,290L430,290L450,291.33333333333337L470,290.6666666666667L490,290L510,288L530,283.3333333333333L550,285.3333333333333L570,279.3333333333333L590,280.6666666666667L610,282.66666666666663L630,281.33333333333337L650,272L670,262.6666666666667L690,250.66666666666669L710,214L730,162.66666666666666L750,121.99999999999999L770,142.00000000000003L790,191.33333333333334L810,298L810,298L790,193.33333333333331L770,148.66666666666666L750,126.66666666666669L730,167.33333333333331L710,214L690,250.66666666666669L670,262.6666666666667L650,272.66666666666663L630,281.33333333333337L610,282.66666666666663L590,280.6666666666667L570,279.3333333333333L550,285.3333333333333L530,283.3333333333333L510,288L490,290.6666666666667L470,290.6666666666667L450,291.33333333333337L430,290L410,290L390,293.3333333333333L370,291.33333333333337L350,288.6666666666667L330,292.66666666666663L310,295.3333333333333L290,295.3333333333333L270,294.6666666666667L250,297.33333333333337L230,295.3333333333333L210,296.6666666666667L190,296L170,294.6666666666667L150,296.6666666666667L130,296.6666666666667L110,299.3333333333333L90,298L70,299.3333333333333L50,299.3333333333333L30,298L10,298Z" fill="#e45756"/></g></g><path class="foreground" aria-hidden="true" d="" display="none"/></g><g transform="translate(0,0)"><path class="background" aria-hidden="true" d="M0,0h820v300h-820Z"/><g><g class="mark-area role-mark marks" role="graphics-object" aria-roledescription="area mark container"><path aria-label="name of countries: Indonesia; release_year: 1980; Count of Records: 0" role="graphics-symbol" aria-roledescription="area mark" d="M10,298L30,298L50,299.3333333333333L70,299.3333333333333L90,298L110,299.3333333333333L130,296.6666666666667L150,296.6666666666667L170,294.6666666666667L190,296L210,296.6666666666667L230,295.3333333333333L250,297.33333333333337L270,294.6666666666667L290,295.3333333333333L310,295.3333333333333L330,292.66666666666663L350,288L370,290.6666666666667L390,293.3333333333333L410,290L430,289.3333333333333L450,290L470,289.3333333333333L490,288.6666666666667L510,286.6666666666667L530,282.66666666666663L550,284.6666666666667L570,275.3333333333333L590,278L610,281.33333333333337L630,278L650,270L670,256.6666666666667L690,248.66666666666666L710,208.66666666666666L730,151.33333333333334L750,113.33333333333333L770,129.33333333333334L790,187.33333333333334L810,298L810,298L790,188L770,134L750,117.33333333333333L730,156L710,211.33333333333331L690,249.33333333333334L670,258.6666666666667L650,270.6666666666667L630,280L610,281.33333333333337L590,280L570,278L550,284.6666666666667L530,282.66666666666663L510,287.3333333333333L490,288.6666666666667L470,290L450,290.6666666666667L430,289.3333333333333L410,290L390,293.3333333333333L370,290.6666666666667L350,288L330,292.66666666666663L310,295.3333333333333L290,295.3333333333333L270,294.6666666666667L250,297.33333333333337L230,295.3333333333333L210,296.6666666666667L190,296L170,294.6666666666667L150,296.6666666666667L130,296.6666666666667L110,299.3333333333333L90,298L70,299.3333333333333L50,299.3333333333333L30,298L10,298Z" fill="#b279a2"/></g></g><path class="foreground" aria-hidden="true" d="" display="none"/></g><g transform="translate(0,0)"><path class="background" aria-hidden="true" d="M0,0h820v300h-820Z"/><g><g class="mark-area role-mark marks" role="graphics-object" aria-roledescription="area mark container"><path aria-label="name of countries: China; release_year: 1980; Count of Records: 0" role="graphics-symbol" aria-roledescription="area mark" d="M10,297.33333333333337L30,297.33333333333337L50,296L70,296.6666666666667L90,298L110,298L130,295.3333333333333L150,296.6666666666667L170,293.3333333333333L190,294.6666666666667L210,295.3333333333333L230,295.3333333333333L250,296.6666666666667L270,293.3333333333333L290,292.66666666666663L310,292.66666666666663L330,290.6666666666667L350,286L370,289.3333333333333L390,291.33333333333337L410,285.3333333333333L430,284.6666666666667L450,284.6666666666667L470,283.3333333333333L490,280L510,276L530,271.3333333333333L550,276L570,258.6666666666667L590,262L610,260.66666666666663L630,260.66666666666663L650,248L670,228.66666666666669L690,222.66666666666666L710,170.66666666666666L730,99.33333333333334L750,39.33333333333332L770,73.33333333333334L790,146.66666666666669L810,297.33333333333337L810,297.33333333333337L790,148.66666666666666L770,74.66666666666669L750,43.33333333333334L730,103.33333333333333L710,170.66666666666666L690,222.66666666666666L670,228.66666666666669L650,248L630,260.66666666666663L610,260.66666666666663L590,262L570,259.3333333333333L550,276L530,271.3333333333333L510,276L490,280L470,283.3333333333333L450,284.6666666666667L430,284.6666666666667L410,285.3333333333333L390,291.33333333333337L370,289.3333333333333L350,286L330,290.6666666666667L310,292.66666666666663L290,292.66666666666663L270,293.3333333333333L250,296.6666666666667L230,295.3333333333333L210,295.3333333333333L190,294.6666666666667L170,293.3333333333333L150,296.6666666666667L130,295.3333333333333L110,298L90,298L70,296.6666666666667L50,296L30,297.33333333333337L10,297.33333333333337Z" fill="#e45756"/></g></g><path class="foreground" aria-hidden="true" d="" display="none"/></g><g transform="translate(0,0)"><path class="background" aria-hidden="true" d="M0,0h820v300h-820Z"/><g><g class="mark-area role-mark marks" role="graphics-object" aria-roledescription="area mark container"><path aria-label="name of countries: Turkey; release_year: 1980; Count of Records: 0" role="graphics-symbol" aria-roledescription="area mark" d="M10,298L30,298L50,299.3333333333333L70,299.3333333333333L90,298L110,299.3333333333333L130,296.6666666666667L150,296.6666666666667L170,294.6666666666667L190,296L210,296.6666666666667L230,295.3333333333333L250,297.33333333333337L270,294.6666666666667L290,295.3333333333333L310,295.3333333333333L330,292.66666666666663L350,288.6666666666667L370,291.33333333333337L390,293.3333333333333L410,290L430,290L450,291.33333333333337L470,290.6666666666667L490,290.6666666666667L510,288L530,283.3333333333333L550,285.3333333333333L570,280L590,280.6666666666667L610,282.66666666666663L630,281.33333333333337L650,272.66666666666663L670,262.6666666666667L690,250.66666666666669L710,220.00000000000003L730,176.66666666666669L750,136.66666666666669L770,162L790,200.00000000000003L810,298.6666666666667L810,298.6666666666667L790,202L770,164L750,139.33333333333334L730,180.66666666666666L710,226.66666666666666L690,256.6666666666667L670,266.66666666666663L650,274.6666666666667L630,282.66666666666663L610,284.6666666666667L590,280.6666666666667L570,280L550,285.3333333333333L530,284L510,289.3333333333333L490,292L470,290.6666666666667L450,291.33333333333337L430,290.6666666666667L410,290L390,293.3333333333333L370,291.33333333333337L350,288.6666666666667L330,292.66666666666663L310,295.3333333333333L290,295.3333333333333L270,294.6666666666667L250,297.33333333333337L230,295.3333333333333L210,296.6666666666667L190,296L170,294.6666666666667L150,296.6666666666667L130,296.6666666666667L110,299.3333333333333L90,298L70,299.3333333333333L50,299.3333333333333L30,298L10,298Z" fill="#eeca3b"/></g></g><path class="foreground" aria-hidden="true" d="" display="none"/></g><g transform="translate(0,0)"><path class="background" aria-hidden="true" d="M0,0h820v300h-820Z"/><g><g class="mark-area role-mark marks" role="graphics-object" aria-roledescription="area mark container"><path aria-label="name of countries: France; release_year: 1980; Count of Records: 0" role="graphics-symbol" aria-roledescription="area mark" d="M10,297.33333333333337L30,297.33333333333337L50,296L70,296.6666666666667L90,298L110,298L130,295.3333333333333L150,296.6666666666667L170,293.3333333333333L190,294.6666666666667L210,295.3333333333333L230,295.3333333333333L250,296.6666666666667L270,293.3333333333333L290,292.66666666666663L310,292.66666666666663L330,290.6666666666667L350,286L370,289.3333333333333L390,291.33333333333337L410,285.3333333333333L430,284.6666666666667L450,284.6666666666667L470,283.3333333333333L490,280L510,276L530,271.3333333333333L550,276L570,259.3333333333333L590,262L610,260.66666666666663L630,260.66666666666663L650,248L670,228.66666666666669L690,222.66666666666666L710,170.66666666666666L730,103.33333333333333L750,43.33333333333334L770,74.66666666666669L790,148.66666666666666L810,297.33333333333337L810,297.33333333333337L790,155.33333333333334L770,78.66666666666667L750,48.66666666666668L730,108.66666666666667L710,175.33333333333334L690,223.99999999999997L670,228.66666666666669L650,248.66666666666666L630,260.66666666666663L610,262L590,262L570,259.3333333333333L550,276L530,271.3333333333333L510,276L490,280L470,283.3333333333333L450,284.6666666666667L430,284.6666666666667L410,285.3333333333333L390,291.33333333333337L370,289.3333333333333L350,286L330,290.6666666666667L310,292.66666666666663L290,292.66666666666663L270,293.3333333333333L250,296.6666666666667L230,295.3333333333333L210,295.3333333333333L190,294.6666666666667L170,293.3333333333333L150,296.6666666666667L130,295.3333333333333L110,298L90,298L70,296.6666666666667L50,296L30,297.33333333333337L10,297.33333333333337Z" fill="#72b7b2"/></g></g><path class="foreground" aria-hidden="true" d="" display="none"/></g><g transform="translate(0,0)"><path class="background" aria-hidden="true" d="M0,0h820v300h-820Z"/><g><g class="mark-area role-mark marks" role="graphics-object" aria-roledescription="area mark container"><path aria-label="name of countries: Russia; release_year: 1980; Count of Records: 0" role="graphics-symbol" aria-roledescription="area mark" d="M10,298L30,298L50,299.3333333333333L70,299.3333333333333L90,298L110,299.3333333333333L130,296.6666666666667L150,296.6666666666667L170,294.6666666666667L190,296L210,296.6666666666667L230,295.3333333333333L250,297.33333333333337L270,294.6666666666667L290,295.3333333333333L310,295.3333333333333L330,292.66666666666663L350,288.6666666666667L370,291.33333333333337L390,293.3333333333333L410,290L430,290L450,291.33333333333337L470,290.6666666666667L490,290L510,288L530,283.3333333333333L550,285.3333333333333L570,279.3333333333333L590,280.6666666666667L610,282.66666666666663L630,281.33333333333337L650,272L670,262L690,250.66666666666669L710,214L730,162.66666666666666L750,121.99999999999999L770,142.00000000000003L790,191.33333333333334L810,298L810,298L790,191.33333333333334L770,142.00000000000003L750,121.99999999999999L730,162.66666666666666L710,214L690,250.66666666666669L670,262.6666666666667L650,272L630,281.33333333333337L610,282.66666666666663L590,280.6666666666667L570,279.3333333333333L550,285.3333333333333L530,283.3333333333333L510,288L490,290L470,290.6666666666667L450,291.33333333333337L430,290L410,290L390,293.3333333333333L370,291.33333333333337L350,288.6666666666667L330,292.66666666666663L310,295.3333333333333L290,295.3333333333333L270,294.6666666666667L250,297.33333333333337L230,295.3333333333333L210,296.6666666666667L190,296L170,294.6666666666667L150,296.6666666666667L130,296.6666666666667L110,299.3333333333333L90,298L70,299.3333333333333L50,299.3333333333333L30,298L10,298Z" fill="#f58518"/></g></g><path class="foreground" aria-hidden="true" d="" display="none"/></g><g transform="translate(0,0)"><path class="background" aria-hidden="true" d="M0,0h820v300h-820Z"/><g><g class="mark-area role-mark marks" role="graphics-object" aria-roledescription="area mark container"><path aria-label="name of countries: Japan; release_year: 1980; Count of Records: 0" role="graphics-symbol" aria-roledescription="area mark" d="M10,298L30,298L50,299.3333333333333L70,299.3333333333333L90,298L110,299.3333333333333L130,296.6666666666667L150,296.6666666666667L170,294.6666666666667L190,296L210,296.6666666666667L230,295.3333333333333L250,297.33333333333337L270,294.6666666666667L290,295.3333333333333L310,295.3333333333333L330,292.66666666666663L350,288L370,290.6666666666667L390,293.3333333333333L410,290L430,289.3333333333333L450,290.6666666666667L470,290L490,288.6666666666667L510,287.3333333333333L530,282.66666666666663L550,284.6666666666667L570,278L590,280L610,281.33333333333337L630,280L650,270.6666666666667L670,259.3333333333333L690,249.33333333333334L710,211.33333333333331L730,157.99999999999997L750,118.66666666666667L770,136L790,190L810,298L810,298L790,191.33333333333334L770,140.66666666666669L750,121.99999999999999L730,160L710,212.66666666666666L690,250.66666666666669L670,262L650,272L630,281.33333333333337L610,282.66666666666663L590,280.6666666666667L570,279.3333333333333L550,285.3333333333333L530,283.3333333333333L510,288L490,290L470,290.6666666666667L450,291.33333333333337L430,290L410,290L390,293.3333333333333L370,291.33333333333337L350,288.6666666666667L330,292.66666666666663L310,295.3333333333333L290,295.3333333333333L270,294.6666666666667L250,297.33333333333337L230,295.3333333333333L210,296.6666666666667L190,296L170,294.6666666666667L150,296.6666666666667L130,296.6666666666667L110,299.3333333333333L90,298L70,299.3333333333333L50,299.3333333333333L30,298L10,298Z" fill="#9d755d"/></g></g><path class="foreground" aria-hidden="true" d="" display="none"/></g><g transform="translate(0,0)"><path class="background" aria-hidden="true" d="M0,0h820v300h-820Z"/><g><g class="mark-area role-mark marks" role="graphics-object" aria-roledescription="area mark container"><path aria-label="name of countries: Italy; release_year: 1980; Count of Records: 0" role="graphics-symbol" aria-roledescription="area mark" d="M10,298L30,298L50,299.3333333333333L70,299.3333333333333L90,298L110,299.3333333333333L130,296.6666666666667L150,296.6666666666667L170,294.6666666666667L190,296L210,296.6666666666667L230,295.3333333333333L250,297.33333333333337L270,294.6666666666667L290,295.3333333333333L310,295.3333333333333L330,292.66666666666663L350,288L370,290.6666666666667L390,293.3333333333333L410,290L430,289.3333333333333L450,290.6666666666667L470,290L490,288.6666666666667L510,287.3333333333333L530,282.66666666666663L550,284.6666666666667L570,278L590,280L610,281.33333333333337L630,280L650,270.6666666666667L670,258.6666666666667L690,249.33333333333334L710,211.33333333333331L730,156L750,117.33333333333333L770,134L790,188L810,298L810,298L790,190L770,136L750,118.66666666666667L730,157.99999999999997L710,211.33333333333331L690,249.33333333333334L670,259.3333333333333L650,270.6666666666667L630,280L610,281.33333333333337L590,280L570,278L550,284.6666666666667L530,282.66666666666663L510,287.3333333333333L490,288.6666666666667L470,290L450,290.6666666666667L430,289.3333333333333L410,290L390,293.3333333333333L370,290.6666666666667L350,288L330,292.66666666666663L310,295.3333333333333L290,295.3333333333333L270,294.6666666666667L250,297.33333333333337L230,295.3333333333333L210,296.6666666666667L190,296L170,294.6666666666667L150,296.6666666666667L130,296.6666666666667L110,299.3333333333333L90,298L70,299.3333333333333L50,299.3333333333333L30,298L10,298Z" fill="#ff9da6"/></g></g><path class="foreground" aria-hidden="true" d="" display="none"/></g><g transform="translate(0,0)"><path class="background" aria-hidden="true" d="M0,0h820v300h-820Z"/><g><g class="mark-area role-mark marks" role="graphics-object" aria-roledescription="area mark container"><path aria-label="name of countries: Spain; release_year: 1980; Count of Records: 0" role="graphics-symbol" aria-roledescription="area mark" d="M10,298L30,298L50,299.3333333333333L70,299.3333333333333L90,298L110,299.3333333333333L130,296.6666666666667L150,296.6666666666667L170,294.6666666666667L190,296L210,296.6666666666667L230,295.3333333333333L250,297.33333333333337L270,294.6666666666667L290,295.3333333333333L310,295.3333333333333L330,292.66666666666663L350,288.6666666666667L370,291.33333333333337L390,293.3333333333333L410,290L430,290L450,291.33333333333337L470,290.6666666666667L490,290.6666666666667L510,288L530,283.3333333333333L550,285.3333333333333L570,279.3333333333333L590,280.6666666666667L610,282.66666666666663L630,281.33333333333337L650,272.66666666666663L670,262.6666666666667L690,250.66666666666669L710,214L730,167.33333333333331L750,126.66666666666669L770,148.66666666666666L790,193.33333333333331L810,298L810,298.6666666666667L790,200.00000000000003L770,161.33333333333334L750,136.66666666666669L730,176.66666666666669L710,220.00000000000003L690,250.66666666666669L670,262.6666666666667L650,272.66666666666663L630,281.33333333333337L610,282.66666666666663L590,280.6666666666667L570,280L550,285.3333333333333L530,283.3333333333333L510,288L490,290.6666666666667L470,290.6666666666667L450,291.33333333333337L430,290L410,290L390,293.3333333333333L370,291.33333333333337L350,288.6666666666667L330,292.66666666666663L310,295.3333333333333L290,295.3333333333333L270,294.6666666666667L250,297.33333333333337L230,295.3333333333333L210,296.6666666666667L190,296L170,294.6666666666667L150,296.6666666666667L130,296.6666666666667L110,299.3333333333333L90,298L70,299.3333333333333L50,299.3333333333333L30,298L10,298Z" fill="#72b7b2"/></g></g><path class="foreground" aria-hidden="true" d="" display="none"/></g><g transform="translate(0,0)"><path class="background" aria-hidden="true" d="M0,0h820v300h-820Z"/><g><g class="mark-area role-mark marks" role="graphics-object" aria-roledescription="area mark container"><path aria-label="name of countries: Switzerland; release_year: 1980; Count of Records: 0" role="graphics-symbol" aria-roledescription="area mark" d="M10,298L30,298L50,299.3333333333333L70,299.3333333333333L90,298L110,299.3333333333333L130,296.6666666666667L150,296.6666666666667L170,294.6666666666667L190,296L210,296.6666666666667L230,295.3333333333333L250,297.33333333333337L270,294.6666666666667L290,295.3333333333333L310,295.3333333333333L330,292.66666666666663L350,288.6666666666667L370,291.33333333333337L390,293.3333333333333L410,290L430,290L450,291.33333333333337L470,290.6666666666667L490,290.6666666666667L510,288L530,283.3333333333333L550,285.3333333333333L570,280L590,280.6666666666667L610,282.66666666666663L630,281.33333333333337L650,272.66666666666663L670,262.6666666666667L690,250.66666666666669L710,220.00000000000003L730,176.66666666666669L750,136.66666666666669L770,161.33333333333334L790,200.00000000000003L810,298.6666666666667L810,298.6666666666667L790,200.00000000000003L770,162L750,136.66666666666669L730,176.66666666666669L710,220.00000000000003L690,250.66666666666669L670,262.6666666666667L650,272.66666666666663L630,281.33333333333337L610,282.66666666666663L590,280.6666666666667L570,280L550,285.3333333333333L530,283.3333333333333L510,288L490,290.6666666666667L470,290.6666666666667L450,291.33333333333337L430,290L410,290L390,293.3333333333333L370,291.33333333333337L350,288.6666666666667L330,292.66666666666663L310,295.3333333333333L290,295.3333333333333L270,294.6666666666667L250,297.33333333333337L230,295.3333333333333L210,296.6666666666667L190,296L170,294.6666666666667L150,296.6666666666667L130,296.6666666666667L110,299.3333333333333L90,298L70,299.3333333333333L50,299.3333333333333L30,298L10,298Z" fill="#54a24b"/></g></g><path class="foreground" aria-hidden="true" d="" display="none"/></g><g transform="translate(0,0)"><path class="background" aria-hidden="true" d="M0,0h820v300h-820Z"/><g><g class="mark-area role-mark marks" role="graphics-object" aria-roledescription="area mark container"><path aria-label="name of countries: New Zealand; release_year: 1980; Count of Records: 0" role="graphics-symbol" aria-roledescription="area mark" d="M10,298L30,298L50,299.3333333333333L70,299.3333333333333L90,298L110,299.3333333333333L130,296.6666666666667L150,296.6666666666667L170,294.6666666666667L190,296L210,296.6666666666667L230,295.3333333333333L250,297.33333333333337L270,294.6666666666667L290,295.3333333333333L310,295.3333333333333L330,292.66666666666663L350,288.6666666666667L370,291.33333333333337L390,293.3333333333333L410,290L430,290L450,291.33333333333337L470,290.6666666666667L490,290L510,288L530,283.3333333333333L550,285.3333333333333L570,279.3333333333333L590,280.6666666666667L610,282.66666666666663L630,281.33333333333337L650,272L670,262L690,250.66666666666669L710,212.66666666666666L730,160L750,121.99999999999999L770,140.66666666666669L790,191.33333333333334L810,298L810,298L790,191.33333333333334L770,142.00000000000003L750,121.99999999999999L730,161.33333333333334L710,214L690,250.66666666666669L670,262L650,272L630,281.33333333333337L610,282.66666666666663L590,280.6666666666667L570,279.3333333333333L550,285.3333333333333L530,283.3333333333333L510,288L490,290L470,290.6666666666667L450,291.33333333333337L430,290L410,290L390,293.3333333333333L370,291.33333333333337L350,288.6666666666667L330,292.66666666666663L310,295.3333333333333L290,295.3333333333333L270,294.6666666666667L250,297.33333333333337L230,295.3333333333333L210,296.6666666666667L190,296L170,294.6666666666667L150,296.6666666666667L130,296.6666666666667L110,299.3333333333333L90,298L70,299.3333333333333L50,299.3333333333333L30,298L10,298Z" fill="#bab0ac"/></g></g><path class="foreground" aria-hidden="true" d="" display="none"/></g><g transform="translate(0,0)"><path class="background" aria-hidden="true" d="M0,0h820v300h-820Z"/><g><g class="mark-area role-mark marks" role="graphics-object" aria-roledescription="area mark container"><path aria-label="name of countries: Australia; release_year: 1980; Count of Records: 0" role="graphics-symbol" aria-roledescription="area mark" d="M10,297.33333333333337L30,296.6666666666667L50,296L70,296.6666666666667L90,298L110,298L130,295.3333333333333L150,296.6666666666667L170,293.3333333333333L190,294.6666666666667L210,295.3333333333333L230,295.3333333333333L250,296L270,293.3333333333333L290,292.66666666666663L310,292.66666666666663L330,290.6666666666667L350,286L370,287.3333333333333L390,291.33333333333337L410,285.3333333333333L430,284.6666666666667L450,284.6666666666667L470,283.3333333333333L490,279.3333333333333L510,275.3333333333333L530,270L550,276L570,258L590,261.33333333333337L610,259.3333333333333L630,258.6666666666667L650,246.66666666666666L670,228.66666666666669L690,218L710,163.33333333333334L730,85.33333333333334L750,24.666666666666657L770,61.33333333333333L790,142.00000000000003L810,297.33333333333337L810,297.33333333333337L790,143.33333333333331L770,65.33333333333331L750,26.66666666666667L730,89.33333333333334L710,165.33333333333334L690,218L670,228.66666666666669L650,248L630,259.3333333333333L610,259.3333333333333L590,261.33333333333337L570,258L550,276L530,270L510,276L490,279.3333333333333L470,283.3333333333333L450,284.6666666666667L430,284.6666666666667L410,285.3333333333333L390,291.33333333333337L370,288.6666666666667L350,286L330,290.6666666666667L310,292.66666666666663L290,292.66666666666663L270,293.3333333333333L250,296.6666666666667L230,295.3333333333333L210,295.3333333333333L190,294.6666666666667L170,293.3333333333333L150,296.6666666666667L130,295.3333333333333L110,298L90,298L70,296.6666666666667L50,296L30,297.33333333333337L10,297.33333333333337Z" fill="#4c78a8"/></g></g><path class="foreground" aria-hidden="true" d="" display="none"/></g><g transform="translate(0,0)"><path class="background" aria-hidden="true" d="M0,0h820v300h-820Z"/><g><g class="mark-area role-mark marks" role="graphics-object" aria-roledescription="area mark container"><path aria-label="name of countries: Iceland; release_year: 1980; Count of Records: 0" role="graphics-symbol" aria-roledescription="area mark" d="M10,297.33333333333337L30,297.33333333333337L50,296L70,296.6666666666667L90,298L110,298L130,295.3333333333333L150,296.6666666666667L170,293.3333333333333L190,294.6666666666667L210,295.3333333333333L230,295.3333333333333L250,296.6666666666667L270,293.3333333333333L290,292.66666666666663L310,292.66666666666663L330,290.6666666666667L350,286L370,289.3333333333333L390,291.33333333333337L410,285.3333333333333L430,284.6666666666667L450,284.6666666666667L470,283.3333333333333L490,280L510,276L530,271.3333333333333L550,276L570,259.3333333333333L590,262L610,262L630,260.66666666666663L650,248.66666666666666L670,228.66666666666669L690,223.99999999999997L710,175.33333333333334L730,108.66666666666667L750,48.66666666666668L770,78.66666666666667L790,155.33333333333334L810,297.33333333333337L810,297.33333333333337L790,155.33333333333334L770,78.66666666666667L750,49.333333333333314L730,109.33333333333334L710,175.33333333333334L690,223.99999999999997L670,228.66666666666669L650,248.66666666666666L630,260.66666666666663L610,262L590,262L570,259.3333333333333L550,276L530,271.3333333333333L510,276L490,280L470,283.3333333333333L450,284.6666666666667L430,284.6666666666667L410,285.3333333333333L390,291.33333333333337L370,289.3333333333333L350,286L330,290.6666666666667L310,292.66666666666663L290,292.66666666666663L270,293.3333333333333L250,296.6666666666667L230,295.3333333333333L210,295.3333333333333L190,294.6666666666667L170,293.3333333333333L150,296.6666666666667L130,295.3333333333333L110,298L90,298L70,296.6666666666667L50,296L30,297.33333333333337L10,297.33333333333337Z" fill="#54a24b"/></g></g><path class="foreground" aria-hidden="true" d="" display="none"/></g><g transform="translate(0,0)"><path class="background" aria-hidden="true" d="M0,0h820v300h-820Z"/><g><g class="mark-area role-mark marks" role="graphics-object" aria-roledescription="area mark container"><path aria-label="name of countries: Norway; release_year: 1980; Count of Records: 0" role="graphics-symbol" aria-roledescription="area mark" d="M10,298L30,298L50,299.3333333333333L70,299.3333333333333L90,298L110,299.3333333333333L130,296.6666666666667L150,296.6666666666667L170,294.6666666666667L190,296L210,296.6666666666667L230,295.3333333333333L250,297.33333333333337L270,294.6666666666667L290,295.3333333333333L310,295.3333333333333L330,292.66666666666663L350,288.6666666666667L370,291.33333333333337L390,293.3333333333333L410,290L430,290L450,291.33333333333337L470,290.6666666666667L490,290L510,288L530,283.3333333333333L550,285.3333333333333L570,279.3333333333333L590,280.6666666666667L610,282.66666666666663L630,281.33333333333337L650,272L670,262L690,250.66666666666669L710,214L730,161.33333333333334L750,121.99999999999999L770,142.00000000000003L790,191.33333333333334L810,298L810,298L790,191.33333333333334L770,142.00000000000003L750,121.99999999999999L730,162.66666666666666L710,214L690,250.66666666666669L670,262L650,272L630,281.33333333333337L610,282.66666666666663L590,280.6666666666667L570,279.3333333333333L550,285.3333333333333L530,283.3333333333333L510,288L490,290L470,290.6666666666667L450,291.33333333333337L430,290L410,290L390,293.3333333333333L370,291.33333333333337L350,288.6666666666667L330,292.66666666666663L310,295.3333333333333L290,295.3333333333333L270,294.6666666666667L250,297.33333333333337L230,295.3333333333333L210,296.6666666666667L190,296L170,294.6666666666667L150,296.6666666666667L130,296.6666666666667L110,299.3333333333333L90,298L70,299.3333333333333L50,299.3333333333333L30,298L10,298Z" fill="#4c78a8"/></g></g><path class="foreground" aria-hidden="true" d="" display="none"/></g></g><g class="mark-group role-legend" role="graphics-symbol" aria-roledescription="legend" aria-label="Symbol legend titled 'name of countries' for fill color with 18 values: Australia, Canada, China, France, Iceland, ending with United States"><g transform="translate(838,0)"><path class="background" aria-hidden="true" d="M0,0h95v248h-95Z" pointer-events="none"/><g><g class="mark-group role-legend-entry"><g transform="translate(0,16)"><path class="background" aria-hidden="true" d="M0,0h0v0h0Z" pointer-events="none"/><g><g class="mark-group role-scope" role="graphics-object" aria-roledescription="group mark container"><g transform="translate(0,0)"><path class="background" aria-hidden="true" d="M0,0h87.15234375v11h-87.15234375Z" pointer-events="none" opacity="1"/><g><g class="mark-symbol role-legend-symbol" pointer-events="none"><path transform="translate(6,6)" d="M5,0A5,5,0,1,1,-5,0A5,5,0,1,1,5,0" fill="#4c78a8" stroke-width="1.5" opacity="1"/></g><g class="mark-text role-legend-label" pointer-events="none"><text text-anchor="start" transform="translate(16,9)" font-family="sans-serif" font-size="10px" fill="#000" opacity="1">Australia</text></g></g><path class="foreground" aria-hidden="true" d="" pointer-events="none" display="none"/></g><g transform="translate(0,13)"><path class="background" aria-hidden="true" d="M0,0h87.15234375v11h-87.15234375Z" pointer-events="none" opacity="1"/><g><g class="mark-symbol role-legend-symbol" pointer-events="none"><path transform="translate(6,6)" d="M5,0A5,5,0,1,1,-5,0A5,5,0,1,1,5,0" fill="#f58518" stroke-width="1.5" opacity="1"/></g><g class="mark-text role-legend-label" pointer-events="none"><text text-anchor="start" transform="translate(16,9)" font-family="sans-serif" font-size="10px" fill="#000" opacity="1">Canada</text></g></g><path class="foreground" aria-hidden="true" d="" pointer-events="none" display="none"/></g><g transform="translate(0,26)"><path class="background" aria-hidden="true" d="M0,0h87.15234375v11h-87.15234375Z" pointer-events="none" opacity="1"/><g><g class="mark-symbol role-legend-symbol" pointer-events="none"><path transform="translate(6,6)" d="M5,0A5,5,0,1,1,-5,0A5,5,0,1,1,5,0" fill="#e45756" stroke-width="1.5" opacity="1"/></g><g class="mark-text role-legend-label" pointer-events="none"><text text-anchor="start" transform="translate(16,9)" font-family="sans-serif" font-size="10px" fill="#000" opacity="1">China</text></g></g><path class="foreground" aria-hidden="true" d="" pointer-events="none" display="none"/></g><g transform="translate(0,39)"><path class="background" aria-hidden="true" d="M0,0h87.15234375v11h-87.15234375Z" pointer-events="none" opacity="1"/><g><g class="mark-symbol role-legend-symbol" pointer-events="none"><path transform="translate(6,6)" d="M5,0A5,5,0,1,1,-5,0A5,5,0,1,1,5,0" fill="#72b7b2" stroke-width="1.5" opacity="1"/></g><g class="mark-text role-legend-label" pointer-events="none"><text text-anchor="start" transform="translate(16,9)" font-family="sans-serif" font-size="10px" fill="#000" opacity="1">France</text></g></g><path class="foreground" aria-hidden="true" d="" pointer-events="none" display="none"/></g><g transform="translate(0,52)"><path class="background" aria-hidden="true" d="M0,0h87.15234375v11h-87.15234375Z" pointer-events="none" opacity="1"/><g><g class="mark-symbol role-legend-symbol" pointer-events="none"><path transform="translate(6,6)" d="M5,0A5,5,0,1,1,-5,0A5,5,0,1,1,5,0" fill="#54a24b" stroke-width="1.5" opacity="1"/></g><g class="mark-text role-legend-label" pointer-events="none"><text text-anchor="start" transform="translate(16,9)" font-family="sans-serif" font-size="10px" fill="#000" opacity="1">Iceland</text></g></g><path class="foreground" aria-hidden="true" d="" pointer-events="none" display="none"/></g><g transform="translate(0,65)"><path class="background" aria-hidden="true" d="M0,0h87.15234375v11h-87.15234375Z" pointer-events="none" opacity="1"/><g><g class="mark-symbol role-legend-symbol" pointer-events="none"><path transform="translate(6,6)" d="M5,0A5,5,0,1,1,-5,0A5,5,0,1,1,5,0" fill="#eeca3b" stroke-width="1.5" opacity="1"/></g><g class="mark-text role-legend-label" pointer-events="none"><text text-anchor="start" transform="translate(16,9)" font-family="sans-serif" font-size="10px" fill="#000" opacity="1">India</text></g></g><path class="foreground" aria-hidden="true" d="" pointer-events="none" display="none"/></g><g transform="translate(0,78)"><path class="background" aria-hidden="true" d="M0,0h87.15234375v11h-87.15234375Z" pointer-events="none" opacity="1"/><g><g class="mark-symbol role-legend-symbol" pointer-events="none"><path transform="translate(6,6)" d="M5,0A5,5,0,1,1,-5,0A5,5,0,1,1,5,0" fill="#b279a2" stroke-width="1.5" opacity="1"/></g><g class="mark-text role-legend-label" pointer-events="none"><text text-anchor="start" transform="translate(16,9)" font-family="sans-serif" font-size="10px" fill="#000" opacity="1">Indonesia</text></g></g><path class="foreground" aria-hidden="true" d="" pointer-events="none" display="none"/></g><g transform="translate(0,91)"><path class="background" aria-hidden="true" d="M0,0h87.15234375v11h-87.15234375Z" pointer-events="none" opacity="1"/><g><g class="mark-symbol role-legend-symbol" pointer-events="none"><path transform="translate(6,6)" d="M5,0A5,5,0,1,1,-5,0A5,5,0,1,1,5,0" fill="#ff9da6" stroke-width="1.5" opacity="1"/></g><g class="mark-text role-legend-label" pointer-events="none"><text text-anchor="start" transform="translate(16,9)" font-family="sans-serif" font-size="10px" fill="#000" opacity="1">Italy</text></g></g><path class="foreground" aria-hidden="true" d="" pointer-events="none" display="none"/></g><g transform="translate(0,104)"><path class="background" aria-hidden="true" d="M0,0h87.15234375v11h-87.15234375Z" pointer-events="none" opacity="1"/><g><g class="mark-symbol role-legend-symbol" pointer-events="none"><path transform="translate(6,6)" d="M5,0A5,5,0,1,1,-5,0A5,5,0,1,1,5,0" fill="#9d755d" stroke-width="1.5" opacity="1"/></g><g class="mark-text role-legend-label" pointer-events="none"><text text-anchor="start" transform="translate(16,9)" font-family="sans-serif" font-size="10px" fill="#000" opacity="1">Japan</text></g></g><path class="foreground" aria-hidden="true" d="" pointer-events="none" display="none"/></g><g transform="translate(0,117)"><path class="background" aria-hidden="true" d="M0,0h87.15234375v11h-87.15234375Z" pointer-events="none" opacity="1"/><g><g class="mark-symbol role-legend-symbol" pointer-events="none"><path transform="translate(6,6)" d="M5,0A5,5,0,1,1,-5,0A5,5,0,1,1,5,0" fill="#bab0ac" stroke-width="1.5" opacity="1"/></g><g class="mark-text role-legend-label" pointer-events="none"><text text-anchor="start" transform="translate(16,9)" font-family="sans-serif" font-size="10px" fill="#000" opacity="1">New Zealand</text></g></g><path class="foreground" aria-hidden="true" d="" pointer-events="none" display="none"/></g><g transform="translate(0,130)"><path class="background" aria-hidden="true" d="M0,0h87.15234375v11h-87.15234375Z" pointer-events="none" opacity="1"/><g><g class="mark-symbol role-legend-symbol" pointer-events="none"><path transform="translate(6,6)" d="M5,0A5,5,0,1,1,-5,0A5,5,0,1,1,5,0" fill="#4c78a8" stroke-width="1.5" opacity="1"/></g><g class="mark-text role-legend-label" pointer-events="none"><text text-anchor="start" transform="translate(16,9)" font-family="sans-serif" font-size="10px" fill="#000" opacity="1">Norway</text></g></g><path class="foreground" aria-hidden="true" d="" pointer-events="none" display="none"/></g><g transform="translate(0,143)"><path class="background" aria-hidden="true" d="M0,0h87.15234375v11h-87.15234375Z" pointer-events="none" opacity="1"/><g><g class="mark-symbol role-legend-symbol" pointer-events="none"><path transform="translate(6,6)" d="M5,0A5,5,0,1,1,-5,0A5,5,0,1,1,5,0" fill="#f58518" stroke-width="1.5" opacity="1"/></g><g class="mark-text role-legend-label" pointer-events="none"><text text-anchor="start" transform="translate(16,9)" font-family="sans-serif" font-size="10px" fill="#000" opacity="1">Russia</text></g></g><path class="foreground" aria-hidden="true" d="" pointer-events="none" display="none"/></g><g transform="translate(0,156)"><path class="background" aria-hidden="true" d="M0,0h87.15234375v11h-87.15234375Z" pointer-events="none" opacity="1"/><g><g class="mark-symbol role-legend-symbol" pointer-events="none"><path transform="translate(6,6)" d="M5,0A5,5,0,1,1,-5,0A5,5,0,1,1,5,0" fill="#e45756" stroke-width="1.5" opacity="1"/></g><g class="mark-text role-legend-label" pointer-events="none"><text text-anchor="start" transform="translate(16,9)" font-family="sans-serif" font-size="10px" fill="#000" opacity="1">South Korea</text></g></g><path class="foreground" aria-hidden="true" d="" pointer-events="none" display="none"/></g><g transform="translate(0,169)"><path class="background" aria-hidden="true" d="M0,0h87.15234375v11h-87.15234375Z" pointer-events="none" opacity="1"/><g><g class="mark-symbol role-legend-symbol" pointer-events="none"><path transform="translate(6,6)" d="M5,0A5,5,0,1,1,-5,0A5,5,0,1,1,5,0" fill="#72b7b2" stroke-width="1.5" opacity="1"/></g><g class="mark-text role-legend-label" pointer-events="none"><text text-anchor="start" transform="translate(16,9)" font-family="sans-serif" font-size="10px" fill="#000" opacity="1">Spain</text></g></g><path class="foreground" aria-hidden="true" d="" pointer-events="none" display="none"/></g><g transform="translate(0,182)"><path class="background" aria-hidden="true" d="M0,0h87.15234375v11h-87.15234375Z" pointer-events="none" opacity="1"/><g><g class="mark-symbol role-legend-symbol" pointer-events="none"><path transform="translate(6,6)" d="M5,0A5,5,0,1,1,-5,0A5,5,0,1,1,5,0" fill="#54a24b" stroke-width="1.5" opacity="1"/></g><g class="mark-text role-legend-label" pointer-events="none"><text text-anchor="start" transform="translate(16,9)" font-family="sans-serif" font-size="10px" fill="#000" opacity="1">Switzerland</text></g></g><path class="foreground" aria-hidden="true" d="" pointer-events="none" display="none"/></g><g transform="translate(0,195)"><path class="background" aria-hidden="true" d="M0,0h87.15234375v11h-87.15234375Z" pointer-events="none" opacity="1"/><g><g class="mark-symbol role-legend-symbol" pointer-events="none"><path transform="translate(6,6)" d="M5,0A5,5,0,1,1,-5,0A5,5,0,1,1,5,0" fill="#eeca3b" stroke-width="1.5" opacity="1"/></g><g class="mark-text role-legend-label" pointer-events="none"><text text-anchor="start" transform="translate(16,9)" font-family="sans-serif" font-size="10px" fill="#000" opacity="1">Turkey</text></g></g><path class="foreground" aria-hidden="true" d="" pointer-events="none" display="none"/></g><g transform="translate(0,208)"><path class="background" aria-hidden="true" d="M0,0h87.15234375v11h-87.15234375Z" pointer-events="none" opacity="1"/><g><g class="mark-symbol role-legend-symbol" pointer-events="none"><path transform="translate(6,6)" d="M5,0A5,5,0,1,1,-5,0A5,5,0,1,1,5,0" fill="#b279a2" stroke-width="1.5" opacity="1"/></g><g class="mark-text role-legend-label" pointer-events="none"><text text-anchor="start" transform="translate(16,9)" font-family="sans-serif" font-size="10px" fill="#000" opacity="1">United Kingdom</text></g></g><path class="foreground" aria-hidden="true" d="" pointer-events="none" display="none"/></g><g transform="translate(0,221)"><path class="background" aria-hidden="true" d="M0,0h87.15234375v11h-87.15234375Z" pointer-events="none" opacity="1"/><g><g class="mark-symbol role-legend-symbol" pointer-events="none"><path transform="translate(6,6)" d="M5,0A5,5,0,1,1,-5,0A5,5,0,1,1,5,0" fill="#ff9da6" stroke-width="1.5" opacity="1"/></g><g class="mark-text role-legend-label" pointer-events="none"><text text-anchor="start" transform="translate(16,9)" font-family="sans-serif" font-size="10px" fill="#000" opacity="1">United States</text></g></g><path class="foreground" aria-hidden="true" d="" pointer-events="none" display="none"/></g></g></g><path class="foreground" aria-hidden="true" d="" pointer-events="none" display="none"/></g></g><g class="mark-text role-legend-title" pointer-events="none"><text text-anchor="start" transform="translate(0,9)" font-family="sans-serif" font-size="11px" font-weight="bold" fill="#000" opacity="1">name of countries</text></g></g><path class="foreground" aria-hidden="true" d="" pointer-events="none" display="none"/></g></g><g class="mark-group role-title"><g transform="translate(410,-22)"><path class="background" aria-hidden="true" d="M0,0h0v0h0Z" pointer-events="none"/><g><g class="mark-text role-title-text" role="graphics-symbol" aria-roledescription="title" aria-label="Title text 'Movies/TV shows Production Distribution per Country by Years from 1990'" pointer-events="none"><text text-anchor="middle" transform="translate(0,10)" font-family="sans-serif" font-size="13px" font-weight="bold" fill="#000" opacity="1">Movies/TV shows Production Distribution per Country by Years from 1990</text></g></g><path class="foreground" aria-hidden="true" d="" pointer-events="none" display="none"/></g></g></g><path class="foreground" aria-hidden="true" d="" display="none"/></g></g></g></svg>